<svg width="40" height="40" viewBox="0 0 40 40" fill="none" xmlns="http://www.w3.org/2000/svg">
<path fill-rule="evenodd" clip-rule="evenodd" d="M26.7678 12.0606C25.7915 11.0843 24.2085 11.0843 23.2322 12.0606L12.2322 23.0606C11.7634 23.5294 11.5 24.1653 11.5 24.8284V27.9999V28.4999H12L15.1716 28.4999C15.8346 28.4999 16.4705 28.2366 16.9393 27.7677L27.9393 16.7677C28.9157 15.7914 28.9157 14.2085 27.9393 13.2322L26.7678 12.0606ZM23.9393 12.7677C24.5251 12.1819 25.4749 12.1819 26.0607 12.7677L27.2322 13.9393C27.818 14.5251 27.818 15.4748 27.2322 16.0606L26 17.2928L22.7071 13.9999L23.9393 12.7677ZM22 14.707L12.9393 23.7677C12.658 24.049 12.5 24.4305 12.5 24.8284L12.5 27.4999H15.1716C15.5694 27.4999 15.9509 27.3419 16.2322 27.0606L25.2929 17.9999L22 14.707Z" fill="#98A3CF"/>
</svg>
